<?xml version="1.0" encoding="UTF-8"?><svg id="a" xmlns="http://www.w3.org/2000/svg" viewBox="0 0 300 300"><path d="m150,0h0C103.31,0,61.61,21.33,34.1,54.78c5.45-.29,11.27-.43,17.49-.43,11.24,0,20.21.21,26.91.61,6.69.41,12.54,1.07,17.55,1.99,3.17.61,5.54,1.69,7.13,3.22,1.58,1.53,2.38,3.32,2.38,5.37,0,3.37-.95,5.83-2.84,7.36-1.89,1.53-4.88,2.15-8.97,1.84-9.2-.71-16.38-1.2-21.54-1.46-5.16-.25-11.93-.43-20.31-.54-3.78,18.81-7.26,37.71-10.43,56.73-1.13,6.95-2.3,15-3.53,24.15-1.23,9.15-2.05,16.54-2.45,22.15-.21,2.96-1.43,5.24-3.68,6.82-2.25,1.59-4.96,2.38-8.13,2.38-3.37,0-5.98-.82-7.82-2.45s-2.76-3.78-2.76-6.44c0-2.45.38-6.52,1.15-12.19.77-5.67,1.66-11.63,2.68-17.86,1.12-6.23,1.99-11.65,2.61-16.25,1.12-7.77,2.4-15.48,3.83-23.15,1.43-7.67,2.86-14.92,4.29-21.77.31-1.53.66-3.3,1.07-5.29.41-1.99.87-4.22,1.38-6.67-3.26.1-6.27.26-9.08.47C7.68,95.79,0,122,0,150h0c0,82.84,67.16,150,150,150h0c76.77,0,140.06-57.67,148.93-132.05-.4,1.09-.91,2.11-1.53,3.07-2.76,4.29-6.39,7.69-10.88,10.2-4.5,2.5-9.66,3.76-15.48,3.76-9.71,0-17.3-2.84-22.77-8.51-.93-.97-1.78-1.99-2.55-3.06-7.77,7.7-15.12,11.57-22.05,11.57s-11.47-2.35-14.49-7.05c-.77-1.19-1.43-2.49-2.01-3.88-2.33,2.13-4.75,4.04-7.27,5.72-5.21,3.48-11.19,5.21-17.94,5.21-13.96,0-23.24-6.58-27.85-19.73-.25.41-.52.81-.81,1.18-4.81,5.93-10.55,10.5-17.25,13.72-6.7,3.22-13.16,4.83-19.39,4.83-10.02,0-17.81-2.84-23.38-8.51-.97-.98-1.84-2.03-2.64-3.12-7.79,7.74-15.16,11.63-22.11,11.63s-11.47-2.35-14.49-7.05c-3.02-4.7-4.52-10.94-4.52-18.7,0-4.6.59-10.5,1.76-17.71,1.17-7.21,2.68-13.92,4.52-20.16.92-3.27,2.15-5.52,3.68-6.75,1.53-1.23,3.99-1.84,7.36-1.84,5.21,0,7.82,1.74,7.82,5.21,0,2.56-.97,8.48-2.91,17.78-2.45,11.24-3.68,18.86-3.68,22.84,0,3.06.41,5.42,1.23,7.05.82,1.64,2.2,2.45,4.14,2.45,1.84,0,4.14-1.28,6.9-3.83,1.4-1.3,3.04-2.98,4.92-5.04-.21-1.67-.32-3.42-.32-5.23,0-8.28,1.63-15.54,4.91-21.77,3.27-6.23,7.51-11.04,12.72-14.41,5.21-3.37,10.68-5.06,16.4-5.06s9.99,1.66,13.11,4.98c3.12,3.32,4.68,7.59,4.68,12.8,0,4.29-.95,7.92-2.84,10.89-1.89,2.96-4.37,4.44-7.44,4.44-1.94,0-3.5-.46-4.68-1.38-1.18-.92-1.76-2.2-1.76-3.83,0-.71.1-1.53.31-2.45.2-.92.36-1.58.46-1.99.51-1.53.77-2.96.77-4.29s-.33-2.35-1-3.07c-.67-.71-1.61-1.07-2.84-1.07-2.35,0-4.55,1.05-6.59,3.14-2.05,2.1-3.68,4.93-4.91,8.51-1.23,3.58-1.84,7.51-1.84,11.81,0,11.86,5.16,17.78,15.48,17.78,4.19,0,8.71-1.4,13.57-4.21,4.85-2.81,9.63-7.03,14.34-12.65,1-1.16,2.1-1.85,3.3-2.06-.25-2.87-.39-5.91-.39-9.13,0-4.5.15-9.05.46-13.65h-5.98c-3.07,0-5.14-.56-6.21-1.69-1.07-1.12-1.61-2.91-1.61-5.37,0-5.72,2.3-8.59,6.9-8.59h8.74c1.74-11.24,4.39-21.51,7.97-30.82,3.58-9.3,7.9-16.71,12.95-22.23,5.06-5.52,10.5-8.28,16.33-8.28,4.29,0,7.67,1.89,10.12,5.67,2.45,3.78,3.68,8.54,3.68,14.26,0,15.84-6.65,29.64-19.93,41.39h17.17c1.63,0,2.81.36,3.53,1.07.71.72,1.07,2.05,1.07,3.99,0,7.05-5.78,10.58-17.32,10.58h-18.7c-.21,5.11-.31,9.1-.31,11.96,0,10.63,1.25,18.09,3.76,22.38,2.5,4.29,6.46,6.44,11.88,6.44,4.39,0,8.28-1.33,11.65-3.99,2.33-1.84,4.96-4.32,7.88-7.43.17-4.18.73-9.23,1.7-15.19,1.17-7.21,2.68-13.92,4.52-20.16.92-3.27,2.15-5.52,3.68-6.75,1.53-1.23,3.99-1.84,7.36-1.84,5.21,0,7.82,1.74,7.82,5.21,0,2.56-.97,8.48-2.91,17.78-2.45,11.24-3.68,18.86-3.68,22.84,0,3.06.41,5.42,1.23,7.05.82,1.64,2.2,2.45,4.14,2.45,1.84,0,4.14-1.28,6.9-3.83,1.4-1.3,3.04-2.98,4.91-5.04-.21-1.68-.32-3.42-.32-5.23,0-8.28,1.63-15.54,4.91-21.77,3.27-6.23,7.51-11.04,12.73-14.41,5.21-3.37,10.68-5.06,16.4-5.06s9.99,1.66,13.11,4.98c3.12,3.32,4.68,7.59,4.68,12.8,0,4.29-.95,7.92-2.84,10.89-1.89,2.96-4.37,4.44-7.44,4.44-1.94,0-3.5-.46-4.68-1.38-1.18-.92-1.76-2.2-1.76-3.83,0-.71.1-1.53.31-2.45.2-.92.36-1.58.46-1.99.51-1.53.77-2.96.77-4.29s-.33-2.35-1-3.07c-.67-.71-1.61-1.07-2.84-1.07-2.35,0-4.55,1.05-6.59,3.14-2.05,2.1-3.68,4.93-4.91,8.51-1.23,3.58-1.84,7.51-1.84,11.81,0,5.83,1.2,10.25,3.6,13.26,2.4,3.02,5.8,4.52,10.2,4.52,3.47,0,6.67-1.02,9.58-3.07,2.91-2.04,5.8-5.06,8.66-9.04,1.23-1.53,2.61-2.3,4.14-2.3,1.33,0,2.38.61,3.14,1.84.4.65.7,1.43.89,2.34.17-2.91.26-5.84.26-8.79h0C300,67.16,232.84,0,150,0Zm-69.69,99.03c-2.66,2.4-6.19,3.6-10.58,3.6s-7.51-1-9.66-2.99-3.22-4.78-3.22-8.36,1.4-6.57,4.22-8.97c2.81-2.4,6.31-3.6,10.5-3.6,3.78,0,6.85.92,9.2,2.76,2.35,1.84,3.53,4.45,3.53,7.82,0,4.09-1.33,7.33-3.99,9.74Zm155.15,0c-2.66,2.4-6.19,3.6-10.58,3.6s-7.51-1-9.66-2.99-3.22-4.78-3.22-8.36,1.4-6.57,4.22-8.97c2.81-2.4,6.31-3.6,10.5-3.6,3.78,0,6.85.92,9.2,2.76,2.35,1.84,3.53,4.45,3.53,7.82,0,4.09-1.33,7.33-3.99,9.74Zm-50.51-7.21c-3.02,6.49-7.54,12.34-13.57,17.55,1.12-8.28,2.53-15.81,4.22-22.61,1.69-6.8,3.47-12.11,5.37-15.94,1.89-3.83,3.6-5.75,5.14-5.75,2.25,0,3.37,3.02,3.37,9.05,0,5.32-1.51,11.22-4.52,17.71Z" fill="#344e41"/></svg>